<?xml version="1.0" standalone="no"?><!DOCTYPE svg PUBLIC "-//W3C//DTD SVG 1.1//EN" "http://www.w3.org/Graphics/SVG/1.1/DTD/svg11.dtd"><svg t="1741937565617" class="icon" viewBox="0 0 1024 1024" version="1.1" xmlns="http://www.w3.org/2000/svg" p-id="5295" xmlns:xlink="http://www.w3.org/1999/xlink" width="200" height="200"><path d="M504.0883 725.615894c-11.302428 0-22.604857-4.520971-31.646799-11.302428L31.646799 479.222958c-15.8234-9.041943-22.604857-29.386313-13.562914-45.209713s29.386313-22.604857 47.470199-13.562914L504.0883 655.540839l449.836645-253.174393c15.8234-9.041943 38.428256-4.520971 47.470198 13.562914 9.041943 15.8234 4.520971 36.16777-13.562913 45.209713l-452.097131 253.174393c-9.041943 9.041943-20.344371 11.302428-31.646799 11.302428z m0 0" fill="#bfbfbf" p-id="5296"></path><path d="M504.0883 872.547461c-11.302428 0-22.604857-4.520971-31.646799-11.302428L31.646799 623.89404c-9.041943-4.520971-13.562914-11.302428-15.823399-20.344371-2.260486-9.041943-2.260486-18.083885 2.260485-24.865342 9.041943-15.8234 29.386313-22.604857 47.470199-13.562914l440.794702 235.090508 449.836644-253.174393c15.8234-9.041943 38.428256-4.520971 47.470199 13.562914 9.041943 15.8234 4.520971 36.16777-13.562914 45.209713L537.995585 858.984547c-11.302428 9.041943-22.604857 13.562914-33.907285 13.562914z m0 0" fill="#bfbfbf" p-id="5297"></path><path d="M504.0883 1017.218543c-11.302428 0-22.604857-4.520971-31.646799-11.302428L31.646799 770.825607c-9.041943-4.520971-13.562914-11.302428-15.823399-20.344371-2.260486-9.041943-2.260486-18.083885 2.260485-24.865342 9.041943-15.8234 29.386313-22.604857 47.470199-13.562914l440.794702 235.090508 449.836644-253.174393c15.8234-9.041943 38.428256-4.520971 47.470199 13.562914 9.041943 15.8234 4.520971 36.16777-13.562914 45.209713l-452.09713 253.174393c-11.302428 6.781457-22.604857 11.302428-33.907285 11.302428z m0 0M506.348786 580.944812c-11.302428 0-22.604857-4.520971-31.646799-11.302428L33.907285 334.551876c-2.260486-2.260486-4.520971-4.520971-9.041943-6.781457-20.344371-20.344371-20.344371-51.99117 0-70.075055 2.260486-2.260486 4.520971-4.520971 9.041943-6.781457l449.836644-223.788079c9.041943-6.781457 20.344371-11.302428 31.646799-11.302428 11.302428 0 20.344371 4.520971 29.386314 9.041942l440.794702 207.96468c4.520971 2.260486 6.781457 4.520971 9.041943 6.781457 9.041943 9.041943 15.8234 22.604857 15.823399 36.16777 0 13.562914-6.781457 24.865342-15.823399 33.907285-2.260486 2.260486-4.520971 4.520971-6.781457 4.520972l-452.097131 253.174392c-4.520971 9.041943-15.8234 13.562914-29.386313 13.562914zM101.721854 293.863135l404.626932 217.006622 415.92936-232.830022-404.626932-189.880795L101.721854 293.863135z m0 0" fill="#bfbfbf" p-id="5298"></path><path d="M81.377483 262.216336l431.75276-214.746137 456.618101 214.746137-456.618101 282.560706L36.16777 293.863135z" fill="#bfbfbf" p-id="5299"></path></svg>